<?xml version="1.0" encoding="utf-8"?>
<!-- Generator: Adobe Illustrator 26.2.0, SVG Export Plug-In . SVG Version: 6.00 Build 0)  -->
<svg version="1.1" id="illustration" xmlns="http://www.w3.org/2000/svg" xmlns:xlink="http://www.w3.org/1999/xlink" x="0px"
	 y="0px" viewBox="0 0 419.72 256.744" enable-background="new 0 0 419.72 256.744" xml:space="preserve">
<rect fill="#0050EC" width="419.72" height="256.744"/>
<path fill="#8DD7FF" d="M267.289,124.579h108.527c0.383,2.224,2.312,3.924,4.643,3.924c2.605,0,4.725-2.119,4.725-4.725
	c0-2.605-2.119-4.724-4.725-4.724c-2.332,0-4.26,1.7-4.643,3.924H268.889V82.174H136.916v1.6h130.373V124.579z M380.459,120.655
	c1.722,0,3.124,1.4,3.124,3.124c0,1.722-1.402,3.124-3.124,3.124c-1.722,0-3.124-1.402-3.124-3.124
	C377.335,122.055,378.737,120.655,380.459,120.655z"/>
<path fill="#8DD7FF" d="M215.838,68.054c2.605,0,4.724-2.119,4.724-4.725c0-2.605-2.119-4.724-4.724-4.724
	c-2.332,0-4.26,1.7-4.643,3.924h-73.943v1.6h73.943C211.578,66.353,213.506,68.054,215.838,68.054z M215.838,60.205
	c1.722,0,3.124,1.402,3.124,3.124c0,1.724-1.402,3.124-3.124,3.124c-1.722,0-3.124-1.4-3.124-3.124
	C212.714,61.607,214.116,60.205,215.838,60.205z"/>
<path fill="#8DD7FF" d="M41.247,174.239v-70.941h-1.6v70.941c-2.224,0.385-3.924,2.313-3.926,4.645
	c0.002,2.604,2.121,4.723,4.726,4.724c2.605-0.002,4.725-2.121,4.725-4.724C45.172,176.552,43.471,174.622,41.247,174.239z
	 M40.446,182.008c-1.722,0-3.123-1.402-3.124-3.124c0.002-1.724,1.402-3.124,3.124-3.124c1.724-0.002,3.126,1.4,3.124,3.124
	C43.571,180.606,42.169,182.006,40.446,182.008z"/>
<g>
	<path fill="#FFFFFF" d="M101.672,129.37c-0.387,5.896-3.335,8.844-8.844,8.844h-8.885c-2.422,0-4.501-0.868-6.238-2.605
		c-1.737-1.736-2.605-3.816-2.605-6.238v-22.171c0-2.38,0.854-4.45,2.564-6.208c1.709-1.757,3.802-2.636,6.28-2.636h8.885
		c5.564,0,8.512,2.948,8.844,8.844H97.23c-0.346-2.934-1.813-4.401-4.401-4.401h-4.442c-1.218,0-2.263,0.433-3.135,1.297
		c-0.872,0.865-1.308,1.9-1.308,3.104v22.171c0,1.19,0.433,2.222,1.298,3.094c0.865,0.872,1.913,1.308,3.145,1.308h4.442
		c2.602,0,4.069-1.467,4.401-4.401H101.672z"/>
	<path fill="#FFFFFF" d="M119.359,107.199h8.885c2.422,0,4.501,0.875,6.239,2.626c1.736,1.751,2.605,3.837,2.605,6.259v13.286
		c0,2.395-0.869,4.467-2.605,6.218c-1.737,1.751-3.817,2.626-6.239,2.626h-8.885c-2.422,0-4.501-0.868-6.238-2.605
		c-1.737-1.736-2.605-3.816-2.605-6.238v-13.286c0-2.45,0.872-4.543,2.616-6.28C114.875,108.067,116.952,107.199,119.359,107.199z
		 M119.359,116.084v13.286c0,1.19,0.433,2.222,1.298,3.094c0.865,0.872,1.913,1.308,3.145,1.308c1.231,0,2.28-0.436,3.145-1.308
		c0.865-0.872,1.297-1.903,1.297-3.094v-13.286c0-1.218-0.439-2.263-1.318-3.135c-0.879-0.872-1.92-1.308-3.125-1.308
		c-1.218,0-2.263,0.436-3.135,1.308C119.795,113.821,119.359,114.866,119.359,116.084z"/>
	<path fill="#FFFFFF" d="M172.504,138.214h-8.844v-4.442c-0.346,2.962-1.827,4.442-4.442,4.442h-4.443
		c-2.422,0-4.501-0.868-6.238-2.605c-1.737-1.736-2.605-3.816-2.605-6.238v-13.286c0-2.45,0.872-4.543,2.616-6.28
		c1.744-1.736,3.82-2.605,6.228-2.605h8.885v-8.844h8.844V138.214z M163.661,111.641h-4.442c-1.218,0-2.263,0.436-3.135,1.308
		c-0.872,0.872-1.308,1.917-1.308,3.135v13.286c0,1.19,0.433,2.222,1.298,3.094c0.865,0.872,1.913,1.308,3.145,1.308
		c1.231,0,2.28-0.436,3.145-1.308c0.865-0.872,1.297-1.903,1.297-3.094V111.641z"/>
	<path fill="#FFFFFF" d="M207.921,124.928h-17.729v4.442c0,1.19,0.433,2.222,1.298,3.094s1.913,1.308,3.146,1.308h4.442
		c2.934,0,4.401-1.467,4.401-4.401h4.442c-0.692,5.896-3.641,8.844-8.844,8.844h-8.886c-2.422,0-4.501-0.868-6.238-2.605
		c-1.737-1.736-2.605-3.816-2.605-6.238v-13.286c0-2.45,0.872-4.543,2.616-6.28c1.744-1.736,3.82-2.605,6.228-2.605h8.886
		c2.422,0,4.501,0.875,6.238,2.626c1.736,1.751,2.605,3.837,2.605,6.259V124.928z M190.191,120.485h8.886v-4.401
		c0-1.218-0.439-2.263-1.318-3.135c-0.879-0.872-1.92-1.308-3.124-1.308c-1.219,0-2.263,0.436-3.135,1.308
		c-0.872,0.872-1.309,1.917-1.309,3.135V120.485z"/>
</g>
<g>
	<path fill="#FFFFFF" d="M132.746,174.765c-0.388,5.896-3.336,8.844-8.844,8.844h-8.886c-2.422,0-4.501-0.868-6.238-2.605
		c-1.737-1.736-2.605-3.816-2.605-6.238v-22.172c0-2.38,0.854-4.449,2.564-6.207s3.802-2.637,6.28-2.637h8.886
		c5.563,0,8.512,2.948,8.844,8.844h-4.443c-0.346-2.934-1.812-4.4-4.4-4.4h-4.443c-1.218,0-2.263,0.433-3.135,1.297
		c-0.871,0.865-1.308,1.899-1.308,3.104v22.172c0,1.19,0.433,2.222,1.298,3.093c0.864,0.872,1.913,1.309,3.145,1.309h4.443
		c2.602,0,4.068-1.467,4.4-4.401H132.746z"/>
	<path fill="#FFFFFF" d="M150.433,152.593h8.886c2.422,0,4.501,0.876,6.238,2.626c1.736,1.751,2.605,3.838,2.605,6.26v13.286
		c0,2.395-0.869,4.467-2.605,6.218c-1.737,1.751-3.816,2.626-6.238,2.626h-8.886c-2.422,0-4.501-0.868-6.238-2.605
		c-1.737-1.736-2.605-3.816-2.605-6.238v-13.286c0-2.45,0.872-4.543,2.616-6.28C145.949,153.462,148.025,152.593,150.433,152.593z
		 M150.433,161.479v13.286c0,1.19,0.433,2.222,1.298,3.093c0.864,0.872,1.913,1.309,3.145,1.309c1.232,0,2.28-0.437,3.146-1.309
		c0.865-0.871,1.298-1.902,1.298-3.093v-13.286c0-1.218-0.439-2.263-1.318-3.135s-1.921-1.308-3.125-1.308
		c-1.218,0-2.263,0.436-3.135,1.308C150.87,159.216,150.433,160.261,150.433,161.479z"/>
	<path fill="#FFFFFF" d="M177.005,183.608v-39.859h8.844v39.859H177.005z"/>
	<path fill="#FFFFFF" d="M194.734,183.608v-39.859h8.843v39.859H194.734z"/>
	<path fill="#FFFFFF" d="M239.035,170.322h-17.729v4.442c0,1.19,0.433,2.222,1.298,3.093c0.864,0.872,1.913,1.309,3.145,1.309h4.443
		c2.934,0,4.4-1.467,4.4-4.401h4.443c-0.692,5.896-3.641,8.844-8.844,8.844h-8.886c-2.422,0-4.501-0.868-6.238-2.605
		c-1.737-1.736-2.605-3.816-2.605-6.238v-13.286c0-2.45,0.872-4.543,2.616-6.28c1.743-1.736,3.819-2.605,6.228-2.605h8.886
		c2.422,0,4.501,0.876,6.238,2.626c1.736,1.751,2.605,3.838,2.605,6.26V170.322z M221.306,165.88h8.886v-4.401
		c0-1.218-0.439-2.263-1.318-3.135s-1.921-1.308-3.125-1.308c-1.218,0-2.263,0.436-3.135,1.308
		c-0.871,0.872-1.308,1.917-1.308,3.135V165.88z"/>
	<path fill="#FFFFFF" d="M270.008,161.479h-4.4c-0.347-2.962-1.827-4.442-4.443-4.442c-1.218,0-2.263,0.436-3.135,1.308
		c-0.871,0.872-1.308,1.917-1.308,3.135v13.286c0,1.19,0.433,2.222,1.298,3.093c0.864,0.872,1.913,1.309,3.145,1.309
		c2.616,0,4.097-1.467,4.443-4.401h4.4c-0.359,5.896-3.308,8.844-8.844,8.844h-4.442c-2.422,0-4.501-0.868-6.238-2.605
		c-1.737-1.736-2.605-3.816-2.605-6.238v-13.286c0-2.45,0.872-4.543,2.616-6.28c1.743-1.736,3.819-2.605,6.228-2.605h4.442
		C266.728,152.593,269.676,155.555,270.008,161.479z"/>
	<path fill="#FFFFFF" d="M283.335,143.749h8.844v8.844h4.443v4.443h-4.443v17.729c0,1.426,0.471,2.516,1.412,3.27
		c0.941,0.755,1.812,1.132,2.616,1.132h0.415v4.442h-4.443c-2.436,0-4.519-0.868-6.248-2.605c-1.73-1.736-2.596-3.816-2.596-6.238
		v-17.729h-4.442v-4.443h4.442V143.749z"/>
	<path fill="#FFFFFF" d="M305.466,148.192v-4.443h8.844v4.443H305.466z M305.466,183.608v-31.016h8.844v31.016H305.466z"/>
	<path fill="#FFFFFF" d="M340.924,152.593h8.844v15.882c0,4.124-1.484,7.678-4.453,10.66s-6.529,4.474-10.681,4.474h-11.439v-31.016
		h8.844v26.573h4.442c1.232,0,2.28-0.437,3.146-1.309c0.865-0.871,1.298-1.902,1.298-3.093V152.593z"/>
	<path fill="#FFFFFF" d="M385.183,170.322h-17.729v4.442c0,1.19,0.433,2.222,1.298,3.093c0.864,0.872,1.913,1.309,3.145,1.309h4.443
		c2.934,0,4.4-1.467,4.4-4.401h4.443c-0.692,5.896-3.641,8.844-8.844,8.844h-8.886c-2.422,0-4.501-0.868-6.238-2.605
		c-1.737-1.736-2.605-3.816-2.605-6.238v-13.286c0-2.45,0.872-4.543,2.616-6.28c1.743-1.736,3.819-2.605,6.228-2.605h8.886
		c2.422,0,4.501,0.876,6.238,2.626c1.736,1.751,2.605,3.838,2.605,6.26V170.322z M367.454,165.88h8.886v-4.401
		c0-1.218-0.439-2.263-1.318-3.135s-1.921-1.308-3.125-1.308c-1.218,0-2.263,0.436-3.135,1.308
		c-0.871,0.872-1.308,1.917-1.308,3.135V165.88z"/>
</g>
<g>
	<path fill="#FFFFFF" d="M39.687,92.819V75.09c-5.896-0.678-8.844-3.626-8.844-8.844V52.96h8.844v13.286
		c0,1.204,0.436,2.246,1.308,3.125s1.917,1.318,3.135,1.318c1.204,0,2.245-0.439,3.125-1.318c0.878-0.879,1.318-1.92,1.318-3.125
		V52.96h8.844v13.286c0,5.218-2.948,8.166-8.844,8.844v17.729H39.687z"/>
	<path fill="#FFFFFF" d="M75.103,92.819V75.09c-5.896-0.678-8.844-3.626-8.844-8.844V52.96h8.844v13.286
		c0,1.204,0.436,2.246,1.308,3.125s1.917,1.318,3.135,1.318c1.204,0,2.245-0.439,3.125-1.318c0.878-0.879,1.318-1.92,1.318-3.125
		V52.96h8.844v13.286c0,5.218-2.948,8.166-8.844,8.844v17.729H75.103z"/>
	<path fill="#FFFFFF" d="M128.248,83.976c-0.387,5.896-3.335,8.844-8.844,8.844h-8.885c-2.422,0-4.501-0.868-6.238-2.605
		c-1.737-1.737-2.605-3.816-2.605-6.238V61.804c0-2.38,0.854-4.45,2.564-6.208c1.709-1.757,3.802-2.636,6.28-2.636h8.885
		c5.564,0,8.512,2.948,8.844,8.844h-4.442c-0.346-2.934-1.813-4.401-4.401-4.401h-4.442c-1.218,0-2.263,0.433-3.135,1.297
		c-0.872,0.865-1.308,1.9-1.308,3.104v22.171c0,1.19,0.433,2.221,1.298,3.093c0.865,0.872,1.913,1.308,3.145,1.308h4.442
		c2.602,0,4.069-1.467,4.401-4.401H128.248z"/>
</g>
<path fill="#8DD7FF" d="M62.315,151.714V84.009h-1.6v69.305h26.805v20.926c-2.224,0.383-3.924,2.312-3.924,4.643
	c0,2.605,2.119,4.725,4.724,4.725c2.605,0,4.725-2.119,4.725-4.725c0-2.332-1.7-4.26-3.924-4.643v-22.527H62.315z M88.32,175.76
	c1.722,0,3.124,1.402,3.124,3.124c0,1.722-1.402,3.124-3.124,3.124c-1.724,0-3.124-1.402-3.124-3.124
	C85.196,177.161,86.596,175.76,88.32,175.76z"/>
</svg>
